<svg width="164" height="164" viewBox="0 0 164 164" fill="none" xmlns="http://www.w3.org/2000/svg">
<rect x="13.5" y="13.5" width="137" height="137" rx="68.5" fill="black" stroke="white" stroke-width="27"/>
<path d="M81.1818 93C79.303 93 77.5833 92.5379 76.0227 91.6136C74.4621 90.6894 73.2197 89.447 72.2955 87.8864C71.3712 86.3258 70.9091 84.6061 70.9091 82.7273C70.9091 80.8333 71.3712 79.1136 72.2955 77.5682C73.2197 76.0076 74.4621 74.7652 76.0227 73.8409C77.5833 72.9167 79.303 72.4545 81.1818 72.4545C83.0758 72.4545 84.7955 72.9167 86.3409 73.8409C87.9015 74.7652 89.1439 76.0076 90.0682 77.5682C90.9924 79.1136 91.4545 80.8333 91.4545 82.7273C91.4545 84.6061 90.9924 86.3258 90.0682 87.8864C89.1439 89.447 87.9015 90.6894 86.3409 91.6136C84.7955 92.5379 83.0758 93 81.1818 93ZM81.1818 88.4545C82.2424 88.4545 83.2045 88.197 84.0682 87.6818C84.9318 87.1667 85.6212 86.4773 86.1364 85.6136C86.6515 84.7348 86.9091 83.7727 86.9091 82.7273C86.9091 81.6667 86.6515 80.7045 86.1364 79.8409C85.6212 78.9773 84.9318 78.2879 84.0682 77.7727C83.2045 77.2576 82.2424 77 81.1818 77C80.1364 77 79.1742 77.2576 78.2955 77.7727C77.4318 78.2879 76.7424 78.9773 76.2273 79.8409C75.7121 80.7045 75.4545 81.6667 75.4545 82.7273C75.4545 83.7727 75.7121 84.7348 76.2273 85.6136C76.7424 86.4773 77.4318 87.1667 78.2955 87.6818C79.1742 88.197 80.1364 88.4545 81.1818 88.4545ZM79 67.9091V54.0909H83.3636V67.9091H79ZM93.1818 73.8182L90.0909 70.7273L99.9091 60.9091L103 64L93.1818 73.8182ZM96 84.9091V80.5455H109.818V84.9091H96ZM99.9091 104.545L90.0909 94.7273L93.1818 91.6364L103 101.455L99.9091 104.545ZM79 111.364V97.5455H83.3636V111.364H79ZM62.4545 104.545L59.3636 101.455L69.1818 91.6364L72.2727 94.7273L62.4545 104.545ZM52.5455 84.9091V80.5455H66.3636V84.9091H52.5455ZM69.1818 73.8182L59.3636 64L62.4545 60.9091L72.2727 70.7273L69.1818 73.8182Z" fill="white"/>
</svg>
